<svg width="93" height="91" viewBox="0 0 93 91" fill="none" xmlns="http://www.w3.org/2000/svg">
<path d="M46.4961 27.9712C41.744 27.9712 37.1865 29.8184 33.8262 33.1064C30.4659 36.3944 28.5781 40.8539 28.5781 45.5039C28.5781 50.1538 30.4659 54.6133 33.8262 57.9013C37.1865 61.1893 41.744 63.0365 46.4961 63.0365C51.2483 63.0365 55.8058 61.1893 59.1661 57.9013C62.5263 54.6133 64.4141 50.1538 64.4141 45.5039C64.4141 40.8539 62.5263 36.3944 59.1661 33.1064C55.8058 29.8184 51.2483 27.9712 46.4961 27.9712ZM46.4961 56.8902C43.4089 56.8902 40.4481 55.6902 38.265 53.5541C36.082 51.4181 34.8556 48.5209 34.8556 45.5001C34.8556 42.4792 36.082 39.5821 38.265 37.446C40.4481 35.3099 43.4089 34.1099 46.4961 34.1099C49.5834 34.1099 52.5442 35.3099 54.7272 37.446C56.9102 39.5821 58.1366 42.4792 58.1366 45.5001C58.1366 48.5209 56.9102 51.4181 54.7272 53.5541C52.5442 55.6902 49.5834 56.8902 46.4961 56.8902Z" fill="black"/>
<path d="M65.1234 31.4141C67.4304 31.4141 69.3006 29.5841 69.3006 27.3267C69.3006 25.0693 67.4304 23.2393 65.1234 23.2393C62.8163 23.2393 60.9461 25.0693 60.9461 27.3267C60.9461 29.5841 62.8163 31.4141 65.1234 31.4141Z" fill="black"/>
<path d="M79.5654 23.1708C78.6684 20.9041 77.2975 18.8456 75.5406 17.1271C73.7837 15.4087 71.6794 14.0681 69.3625 13.1912C66.6513 12.1953 63.7871 11.6568 60.8918 11.5987C57.1602 11.4394 55.9783 11.3939 46.5155 11.3939C37.0528 11.3939 35.8399 11.3939 32.1393 11.5987C29.2462 11.6539 26.384 12.1925 23.6763 13.1912C21.3588 14.0671 19.254 15.4073 17.497 17.1259C15.7399 18.8445 14.3694 20.9035 13.4734 23.1708C12.4555 25.8235 11.9064 28.6264 11.8498 31.4594C11.6832 35.107 11.6328 36.2635 11.6328 45.5265C11.6328 54.7857 11.6328 55.965 11.8498 59.5936C11.9079 62.4297 12.4543 65.228 13.4734 67.886C14.3719 70.1525 15.7438 72.2107 17.5012 73.929C19.2587 75.6474 21.3632 76.9881 23.6802 77.8656C26.3827 78.9015 29.2461 79.4785 32.147 79.5719C35.8787 79.7311 37.0605 79.7804 46.5233 79.7804C55.986 79.7804 57.1989 79.7804 60.8995 79.5719C63.7946 79.5143 66.6587 78.9771 69.3703 77.9832C71.6866 77.1042 73.7902 75.7625 75.5469 74.0435C77.3036 72.3246 78.6749 70.2662 79.5732 67.9997C80.5923 65.3455 81.1387 62.5473 81.1968 59.7111C81.3634 56.0635 81.4138 54.9071 81.4138 45.644C81.4138 36.381 81.4138 35.2056 81.1968 31.577C81.1517 28.7039 80.5998 25.8601 79.5654 23.1708ZM74.8457 59.313C74.8207 61.4981 74.4131 63.6629 73.6405 65.7133C73.0586 67.1878 72.1677 68.5267 71.0252 69.6441C69.8826 70.7614 68.5137 71.6323 67.0065 72.2009C64.9343 72.9533 62.7454 73.3522 60.5353 73.3801C56.854 73.5469 55.8155 73.5886 46.376 73.5886C36.9288 73.5886 35.9639 73.5886 32.2129 73.3801C30.0039 73.3536 27.816 72.9547 25.7455 72.2009C24.2331 71.6358 22.8587 70.7665 21.7112 69.6489C20.5638 68.5314 19.6689 67.1906 19.0844 65.7133C18.3228 63.685 17.9154 61.5457 17.8793 59.385C17.7127 55.783 17.6739 54.7668 17.6739 45.5303C17.6739 36.29 17.6739 35.3459 17.8793 31.6718C17.9043 29.4878 18.3119 27.3243 19.0844 25.2752C20.2663 22.2836 22.6882 19.929 25.7455 18.7839C27.8171 18.0337 30.0043 17.6349 32.2129 17.6047C35.898 17.4416 36.9327 17.3961 46.376 17.3961C55.8194 17.3961 56.7882 17.3961 60.5353 17.6047C62.7456 17.6307 64.9348 18.0296 67.0065 18.7839C68.5136 19.3537 69.8823 20.2255 71.0248 21.3434C72.1673 22.4613 73.0582 23.8005 73.6405 25.2752C74.4022 27.3036 74.8096 29.4429 74.8457 31.6035C75.0123 35.2094 75.0549 36.2218 75.0549 45.462C75.0549 54.6985 75.0549 55.692 74.8883 59.3168H74.8457V59.313Z" fill="black"/>
</svg>
