<svg width="42" height="42" viewBox="0 0 42 42" fill="none" xmlns="http://www.w3.org/2000/svg">
<path d="M33.2903 29.7097C32.4706 28.9247 31.6729 28.117 30.898 27.2878C30.247 26.6263 29.855 26.145 29.855 26.145L24.955 23.8053C26.9167 21.5804 27.9994 18.7162 28 15.75C28 8.99675 22.505 3.5 15.75 3.5C8.995 3.5 3.5 8.99675 3.5 15.75C3.5 22.5033 8.995 28 15.75 28C18.8353 28 21.6475 26.845 23.8053 24.9567L26.145 29.8568C26.145 29.8568 26.6263 30.2487 27.2878 30.8997C27.965 31.535 28.8558 32.3943 29.7098 33.292L32.0863 35.728L33.1433 36.8585L36.855 33.1467L35.7245 32.0898C35.0613 31.4387 34.1758 30.5742 33.2903 29.7097ZM15.75 24.5C10.9253 24.5 7 20.5747 7 15.75C7 10.9253 10.9253 7 15.75 7C20.5748 7 24.5 10.9253 24.5 15.75C24.5 20.5747 20.5748 24.5 15.75 24.5Z" fill="black"/>
</svg>
