<svg width="100" height="100" viewBox="0 0 100 100" fill="none" xmlns="http://www.w3.org/2000/svg">
<path fill-rule="evenodd" clip-rule="evenodd" d="M76.6792 23.4708C73.214 19.9829 69.0911 17.2171 64.5494 15.334C60.0077 13.4508 55.1375 12.4875 50.2208 12.5C29.6042 12.5 12.8208 29.2792 12.8125 49.9042C12.8125 56.4958 14.5333 62.9292 17.8042 68.6042L12.5 87.9833L32.3292 82.7792C37.8141 85.765 43.9592 87.3306 50.2042 87.3333H50.2208C70.8333 87.3333 87.6167 70.5542 87.625 49.9292C87.6392 45.0145 86.6791 40.1458 84.8003 35.6044C82.9216 31.063 80.1613 26.9391 76.6792 23.4708ZM50.2208 81.0208H50.2083C44.6397 81.0214 39.1735 79.5232 34.3833 76.6833L33.25 76.0083L21.4833 79.0958L24.6208 67.625L23.8833 66.45C20.7699 61.4934 19.1218 55.7574 19.1292 49.9042C19.1375 32.7625 33.0833 18.8167 50.2333 18.8167C54.3177 18.8076 58.3633 19.6087 62.136 21.1735C65.9088 22.7384 69.3337 25.036 72.2125 27.9333C75.1067 30.8168 77.4008 34.2454 78.962 38.0208C80.5233 41.7963 81.3207 45.8437 81.3083 49.9292C81.3 67.0708 67.3542 81.0208 50.2208 81.0208ZM67.275 57.7333C66.3375 57.2625 61.7458 55.0042 60.8875 54.6917C60.0333 54.3792 59.4125 54.225 58.7875 55.1583C58.1625 56.0917 56.3708 58.1958 55.825 58.8208C55.2792 59.4458 54.7333 59.5208 53.8 59.0542C52.8667 58.5875 49.8542 57.6 46.2833 54.4167C43.5042 51.9375 41.6292 48.8792 41.0833 47.9417C40.5375 47.0042 41.025 46.5 41.4958 46.0333C41.9167 45.6167 42.4292 44.9417 42.8958 44.3958C43.3625 43.85 43.5167 43.4625 43.8292 42.8375C44.1417 42.2125 43.9875 41.6667 43.75 41.2C43.5167 40.7292 41.6458 36.1292 40.8667 34.2583C40.1125 32.4458 39.3417 32.6875 38.7667 32.6625C38.1712 32.6381 37.5752 32.627 36.9792 32.6292C36.5052 32.6412 36.0389 32.7511 35.6094 32.9519C35.1799 33.1526 34.7966 33.44 34.4833 33.7958C33.625 34.7333 31.2125 36.9917 31.2125 41.5917C31.2125 46.1917 34.5625 50.6375 35.0292 51.2625C35.4958 51.8875 41.6208 61.325 50.9958 65.375C53.2292 66.3375 54.9708 66.9125 56.325 67.3458C58.5625 68.0583 60.6 67.9542 62.2125 67.7167C64.0083 67.45 67.7417 65.4583 68.5208 63.275C69.3 61.0917 69.3 59.2208 69.0667 58.8292C68.8333 58.4375 68.2042 58.2 67.275 57.7333Z" fill="black"/>
</svg>
