<svg width="46" height="44" viewBox="0 0 46 44" fill="none" xmlns="http://www.w3.org/2000/svg">
<path d="M40.25 7.33331H3.83337V11H8.24171L14.5284 27.5C14.9238 28.5698 15.6555 29.4965 16.6232 30.1529C17.5908 30.8094 18.7471 31.1635 19.9334 31.1666H36.4167V27.5H19.9334C19.5395 27.4998 19.1552 27.3836 18.8328 27.1671C18.5104 26.9506 18.2656 26.6443 18.1317 26.29L17.25 23.8333H35.0367C35.8686 23.8322 36.6775 23.5722 37.3414 23.0926C38.0052 22.6131 38.4879 21.94 38.7167 21.175L42.1667 9.66164C42.2446 9.4209 42.2698 9.16737 42.2407 8.9169C42.2116 8.66642 42.1288 8.42438 41.9975 8.20589C41.8662 7.98739 41.6892 7.79714 41.4776 7.64701C41.2659 7.49687 41.0242 7.39009 40.7675 7.33331C40.5962 7.30662 40.4214 7.30662 40.25 7.33331ZM34.9792 20.1666H15.8125L12.3242 11H37.7009L34.9792 20.1666Z" fill="black"/>
<path d="M20.125 38.5C21.7128 38.5 23 37.2688 23 35.75C23 34.2312 21.7128 33 20.125 33C18.5372 33 17.25 34.2312 17.25 35.75C17.25 37.2688 18.5372 38.5 20.125 38.5Z" fill="black"/>
<path d="M31.625 38.5C33.2128 38.5 34.5 37.2688 34.5 35.75C34.5 34.2312 33.2128 33 31.625 33C30.0372 33 28.75 34.2312 28.75 35.75C28.75 37.2688 30.0372 38.5 31.625 38.5Z" fill="black"/>
</svg>
